<?xml version="1.0" encoding="utf-8"?>
<!-- Generator: Adobe Illustrator 17.0.0, SVG Export Plug-In . SVG Version: 6.00 Build 0)  -->
<!DOCTYPE svg PUBLIC "-//W3C//DTD SVG 1.1//EN" "http://www.w3.org/Graphics/SVG/1.1/DTD/svg11.dtd">
<svg version="1.1" xmlns="http://www.w3.org/2000/svg" xmlns:xlink="http://www.w3.org/1999/xlink" x="0px" y="0px" width="612px"
	 height="792px" viewBox="0 0 612 792" enable-background="new 0 0 612 792" xml:space="preserve">
<g id="Layer_2">
</g>
<g id="Layer_5">
</g>
<g id="Layer_6">
	<g id="Layer_3">
	</g>
</g>
<g id="Layer_4">
	<g>
		<g>
			<g>
				<path fill="#a0da74" d="M392.65,248.071c-2.713,0.557-3.601,2.069-5.218,7.636l-9.968,39.849h-7.096l-10.333-41.199
					c-1.251-4.932-1.774-5.57-5.165-6.285l-0.731-0.159v-6.522h19.203v6.522l-0.784,0.159c-2.66,0.557-3.756,0.955-3.756,2.704
					c0,0.638,0.155,1.431,0.416,2.467l6.732,27.916l6.365-27.68c0.21-1.033,0.261-1.907,0.314-2.545
					c0-2.066-1.096-2.464-3.236-2.863l-0.888-0.159v-6.522h14.769v6.522L392.65,248.071z"/>
				<path fill="#a0da74" d="M431.654,295.555h-30.996v-6.522l1.043-0.159c2.923-0.479,3.55-1.59,3.55-6.68v-27.443
					c0-5.09-0.627-6.201-3.55-6.68l-1.043-0.159v-6.522h30.11l5.167,16.385l-3.55,2.704c-3.495-7.717-7.88-11.929-12.471-11.929
					c-5.532,0-5.532,1.826-5.532,7.396v6.761h1.515c3.809,0,5.218-0.24,5.322-8.672h4.071v24.736h-4.071
					c-0.678-8.034-2.348-8.75-5.375-8.75h-1.462v9.387c0,8.034,0,8.986,4.332,8.986c5.949,0,10.489-4.294,15.029-14.235l3.652,2.623
					L431.654,295.555z"/>
				<path fill="#a0da74" d="M467.098,295.555l-11.272-23.305h-2.713v9.944c0,5.09,0.627,6.201,3.548,6.68l1.045,0.159v6.522h-18.317
					v-6.522l1.043-0.159c2.923-0.479,3.55-1.59,3.55-6.68v-27.443c0-5.09-0.627-6.201-3.55-6.68l-1.043-0.159v-6.522h20.299
					c8.715,0,15.498,2.863,15.498,14.475c0,7.318-3.287,12.807-8.715,14.714l6.575,12.966c2.452,4.135,3.393,5.489,6.157,5.489
					v6.522H467.098z M457.13,248.786c-4.017,0-4.017,1.752-4.017,3.5v12.409h3.705c6.628,0,7.722-4.854,7.722-8.034
					C464.54,249.424,460.157,248.786,457.13,248.786z"/>
				<path fill="#a0da74" d="M502.47,295.555h-17.795v-6.522l1.043-0.159c2.923-0.479,3.55-1.59,3.55-6.68v-27.443
					c0-5.09-0.627-6.201-3.55-6.68l-1.043-0.159v-6.522h16.594c11.272,0,21.396,4.452,21.396,27.282
					C522.666,282.113,518.646,295.555,502.47,295.555z M502.158,248.55c-2.974,0-3.758,0.874-3.758,4.213v29.908
					c0,4.216,0,5.725,3.497,5.725c6.522,0,10.75-7.953,10.75-20.281C512.647,255.946,508.68,248.55,502.158,248.55z"/>
				<path fill="#a0da74" d="M556.394,295.555h-30.996v-6.522l1.043-0.159c2.923-0.479,3.55-1.59,3.55-6.68v-27.443
					c0-5.09-0.627-6.201-3.55-6.68l-1.043-0.159v-6.522h30.11l5.167,16.385l-3.55,2.704c-3.495-7.717-7.88-11.929-12.471-11.929
					c-5.532,0-5.532,1.826-5.532,7.396v6.761h1.515c3.809,0,5.218-0.24,5.322-8.672h4.071v24.736h-4.071
					c-0.678-8.034-2.348-8.75-5.375-8.75h-1.462v9.387c0,8.034,0,8.986,4.332,8.986c5.949,0,10.489-4.294,15.029-14.235l3.652,2.623
					L556.394,295.555z"/>
			</g>
			<g>
				<path fill="#a0da74" d="M78.253,296.695H49.866v-6.522l1.045-0.159c2.921-0.479,3.548-1.59,3.548-6.68v-27.443
					c0-5.09-0.627-6.201-3.548-6.68l-1.045-0.159v-6.522h18.317v6.522l-1.045,0.159c-2.921,0.479-3.548,1.59-3.548,6.68v26.407
					c0,6.285,0,7.237,3.182,7.237c5.167,0,9.76-5.09,13.308-14.714l3.601,2.943L78.253,296.695z"/>
				<path fill="#a0da74" d="M85.419,261.859l-2.243-3.581c1.253-1.671,1.982-3.021,2.558-4.692
					c-2.246-0.635-3.393-2.704-3.393-5.806c0-3.578,1.774-6.282,4.071-6.282c2.558,0,4.279,3.102,4.279,7.555
					C90.69,253.744,88.708,258.598,85.419,261.859z"/>
				<path fill="#a0da74" d="M95.812,296.695v-6.522l1.253-0.159c3.444-0.479,3.548-2.785,3.548-6.68v-27.443
					c0-4.294-0.208-6.282-3.548-6.68l-1.253-0.159v-6.522h18.734v6.522l-1.251,0.159c-3.444,0.479-3.55,2.785-3.55,6.68v27.443
					c0,4.294,0.21,6.282,3.55,6.68l1.251,0.159v6.522H95.812z"/>
				<path fill="#a0da74" d="M134.229,297.728c-3.548,0-7.149-1.59-9.339-4.054l-0.731,3.896h-3.08l-4.33-20.281l3.913-1.988
					c3.393,9.465,7.776,14.714,13.671,14.714c3.862,0,6.575-2.944,6.575-7.079c0-2.943-1.096-4.138-5.01-5.647l-5.165-1.988
					c-5.01-1.911-12.995-3.5-12.995-16.466c0-10.1,5.636-17.337,13.465-17.337c3.025,0,6.261,1.431,8.349,3.578l0.625-2.545h3.131
					l3.444,16.145l-3.756,2.147c-3.758-7.872-6.367-11.612-11.428-11.612c-3.34,0-5.74,2.306-5.74,5.57
					c0,4.372,5.53,6.042,7.149,6.441l4.748,1.512c3.287,0.955,11.27,3.18,11.27,15.906
					C148.996,289.617,142.735,297.728,134.229,297.728z"/>
				<path fill="#a0da74" d="M170.566,297.728c-10.123,0-18.627-10.498-18.627-27.599c0-16.544,8.139-28.632,19.307-28.632
					c10.75,0,18.995,10.815,18.995,27.677C190.241,285.4,181.734,297.728,170.566,297.728z M171.297,249.609
					c-5.53,0-9.339,8.193-9.339,20.203c0,7.794,1.825,19.805,9.027,19.805c5.532,0,9.237-8.193,9.237-20.284
					C180.222,256.927,176.882,249.609,171.297,249.609z"/>
				<path fill="#a0da74" d="M221.309,296.695h-28.387v-6.522l1.043-0.159c2.923-0.479,3.55-1.59,3.55-6.68v-27.443
					c0-5.09-0.627-6.201-3.55-6.68l-1.043-0.159v-6.522h18.317v6.522l-1.045,0.159c-2.921,0.479-3.548,1.59-3.548,6.68v26.407
					c0,6.285,0,7.237,3.185,7.237c5.165,0,9.758-5.09,13.306-14.714l3.601,2.943L221.309,296.695z"/>
				<path fill="#a0da74" d="M247.629,296.695v-6.522l1.304-0.159c2.243-0.24,3.027-0.955,3.027-2.545
					c-0.053-0.874-0.21-1.83-0.523-3.261l-1.566-6.761h-11.219l-1.67,6.839c-0.261,1.036-0.47,1.752-0.47,2.387
					c0,2.306,1.409,2.863,3.862,3.342l0.835,0.159v6.522h-16.125v-6.522l0.835-0.159c2.921-0.557,4.071-2.309,6.106-9.705
					l10.331-37.78h8.088l10.227,38.813c1.984,6.363,2.401,7.875,5.167,8.672l0.835,0.159v6.522H247.629z M244.29,255.175
					l-3.966,15.511h7.829L244.29,255.175z"/>
			</g>
			<g>
				<g id="XMLID_1_">
					<g>
						<path fill="#a0da74" d="M287.571,246.319c0.251,0.262,4.31,4.686,5.599,15.097c0,0-8.746-8.358-8.939-10.171l-0.182-2.463
							c0,0-8.175-7.514-1.619-20.627c0,0-6.75,0.57-10.456,17.582l-2.554-2.36c0.16,0.399,3.82,9.099,1.129,20.798
							c0,0-17.001-26.704-1.14-42.382l2.759,0.992l-0.137-3.843c0,0,4.766-4.413,10.832-5.701c0,0-1.505-1.642-5.564-0.787
							c0,0,1.003-2.28,3.774-2.28c0,0-2.634-2.987-13.683,4.276l-0.707-3.204l-0.787,3.854c0,0-5.348,7.115-5.348,13.603
							c0,0-3.558-31.926,25.017-22.371c0,0,6.203-15.393,12.474-15.747l2.497,0.844l0.274-2.851c0,0,4.926-3.341,14.686-4.481
							l-5.918-3.204l4.561-0.57c0,0-9.19-2.429-16.602,0.775l0.57-2.417c0,0-11.117,10.194-13.181,17.674
							c0,0,1.209-24.732,22.725-24.663c0.296,0,11.915,0.068,18.107,10.616c0,0,3.854-13.82,22.303-13.683
							c0,0,16.18,0.057,20.547,22.189c0,0-10.216-14.412-14.561-15.838l1.494,2.702c0,0-5.815-2.132-17.024-0.422l4.481,0.707
							l-5.838,3.352c0,0,13.398,1.927,14.891,4.413l0.935,2.28l2.486-1.345c0,0,13.523,4.823,13.808,23.637
							c0,0,3.364,1.516,1.083,24.184c0,0-4.698-12.976-6.545-14.823l-0.433-8.552l-1.995,3.843c0,0-7.982-14.401-18.095-16.385
							c0,0,7.685,6.693,6.978,19.521l-1.209,0.707c0,0,0.924,12.543-3.284,20.387c0,0-1.072-12.759-3.204-15.61l1.288-4.207
							l-2.28,1.642c0,0-4.071-14.321-9.84-16.168v16.773c-1.859-3.865-4.344-7.514-7.662-10.239
							c-0.308-4.458-0.604-7.161-0.604-7.161c-1.71,0.388-3.797,4.378-3.797,4.378c1.608,0.753,3.079,1.688,4.401,2.782
							c0.285,4.207,0.593,9.977,0.684,16.522c-6.841-6.705-10.787-6.955-10.787-6.955l0.182,3.991
							c2.474,1.334,3.044,11.026,3.044,11.026c3.044,7.411,0.946,15.005,0.946,15.005c-10.444-25.267-19.384-24.321-19.384-24.321
							c5.325,9.316,8.369,25.849,8.369,25.849c2.668,14.253,5.313,49.782,5.313,49.782c5.701-11.972,9.509-36.864,9.509-36.864
							c2.452-12.075,2.965-25.997,2.805-37.513c2.064,2.03,4.401,4.652,6.978,8.05v7.32c0,0,0.091,35.632-5.792,55.78
							c0,0,0,4.755,0.376,5.701c0,0,14.435,1.14,19.384,4.367c0,0,11.026,2.474,12.919,2.474h-1.893h-84.765
							c0,0,9.509-4.755,17.103-3.044c0,0,1.425-3.421,12.782-3.227c0,0,3.181-59.098-8.597-77.159c0,0-5.04,3.706-3.136,19.201
							L287.571,246.319z M310.341,201.189c-0.41,0.137-7.069,2.372-8.723,5.69h4.378
							C305.997,206.879,306.943,204.222,310.341,201.189z"/>
						<path fill="#a0da74" d="M331.743,221.61c4.926,10.296,5.416,22.132,5.416,22.132c-1.904-2.976-3.717-5.553-5.416-7.799V221.61
							z"/>
						<path fill="#a0da74" d="M331.743,221.61v14.333c-2.577-3.398-4.914-6.02-6.978-8.05c-0.091-6.545-0.399-12.314-0.684-16.522
							C327.399,214.096,329.885,217.745,331.743,221.61z"/>
					</g>
					<g>
						<path fill="none" stroke="#a0da74" stroke-miterlimit="10" d="M324.765,227.893c2.064,2.03,4.401,4.652,6.978,8.05
							c1.699,2.246,3.512,4.823,5.416,7.799c0,0-0.49-11.836-5.416-22.132c-1.859-3.865-4.344-7.514-7.662-10.239"/>
						<path fill="none" stroke="#a0da74" stroke-miterlimit="10" d="M324.765,227.893c0.16,11.516-0.353,25.438-2.805,37.513
							c0,0-3.808,24.891-9.509,36.864c0,0-2.645-35.53-5.313-49.782c0,0-3.044-16.533-8.369-25.849c0,0,8.939-0.946,19.384,24.321
							c0,0,2.098-7.594-0.946-15.005c0,0-0.57-9.692-3.044-11.026l-0.182-3.991C313.978,220.938,317.924,221.189,324.765,227.893z"
							/>
						<path fill="none" stroke="#a0da74" stroke-miterlimit="10" d="M324.081,211.371c0.285,4.207,0.593,9.977,0.684,16.522"/>
						<path fill="none" stroke="#a0da74" stroke-miterlimit="10" d="M324.081,211.371c-1.323-1.095-2.794-2.03-4.401-2.782
							c0,0,2.087-3.991,3.797-4.378C323.477,204.211,323.773,206.913,324.081,211.371z"/>
						<path fill="none" stroke="#a0da74" stroke-miterlimit="10" d="M310.341,201.189c-0.41,0.137-7.069,2.372-8.723,5.69h4.378
							C305.997,206.879,306.943,204.222,310.341,201.189z"/>
						<path fill="none" stroke="#a0da74" stroke-miterlimit="10" d="M310.341,201.189c0.011,0,0.011,0,0.023-0.011"/>
						<path fill="none" stroke="#a0da74" stroke-miterlimit="10" d="M359.166,311.586h-0.536h-1.893h-84.765
							c0,0,9.509-4.755,17.103-3.044c0,0,1.425-3.421,12.782-3.227c0,0,3.181-59.098-8.597-77.159c0,0-5.04,3.706-3.136,19.201
							l-2.554-1.038l-0.011-0.011"/>
						<path fill="none" stroke="#a0da74" stroke-miterlimit="10" d="M269.418,243.377c0.16,0.399,3.82,9.099,1.129,20.798
							c0,0-17.001-26.704-1.14-42.382l2.759,0.992l-0.137-3.843c0,0,4.766-4.413,10.832-5.701c0,0-1.505-1.642-5.564-0.787
							c0,0,1.003-2.28,3.774-2.28c0,0-2.634-2.987-13.683,4.276l-0.707-3.204l-0.787,3.854c0,0-5.348,7.115-5.348,13.603
							c0,0-3.558-31.926,25.017-22.371c0,0,6.203-15.393,12.474-15.747l2.497,0.844l0.274-2.851c0,0,4.926-3.341,14.686-4.481
							l-5.918-3.204l4.561-0.57c0,0-9.19-2.429-16.602,0.775l0.57-2.417c0,0-11.117,10.194-13.181,17.674
							c0,0,1.209-24.732,22.725-24.663c0.296,0,11.915,0.068,18.107,10.616c0,0,3.854-13.82,22.303-13.683
							c0,0,16.18,0.057,20.547,22.189c0,0-10.216-14.412-14.561-15.838l1.494,2.702c0,0-5.815-2.132-17.024-0.422l4.481,0.707
							l-5.838,3.352c0,0,13.398,1.927,14.891,4.413l0.935,2.28l2.486-1.345c0,0,13.523,4.823,13.808,23.637
							c0,0,3.364,1.516,1.083,24.184c0,0-4.698-12.976-6.545-14.823l-0.433-8.552l-1.995,3.843c0,0-7.982-14.401-18.095-16.385
							c0,0,7.685,6.693,6.978,19.521l-1.209,0.707c0,0,0.924,12.543-3.284,20.387c0,0-1.072-12.759-3.204-15.61l1.288-4.207
							l-2.28,1.642c0,0-4.071-14.321-9.84-16.168v16.773v14.333v7.32c0,0,0.091,35.632-5.792,55.78c0,0,0,4.755,0.376,5.701
							c0,0,14.435,1.14,19.384,4.367c0,0,11.026,2.474,12.919,2.474"/>
						<path fill="none" stroke="#a0da74" stroke-miterlimit="10" d="M287.571,246.319c0.251,0.262,4.31,4.686,5.599,15.097
							c0,0-8.746-8.358-8.939-10.171l-0.182-2.463c0,0-8.175-7.514-1.619-20.627c0,0-6.75,0.57-10.456,17.582l-2.554-2.36
							l-0.011-0.011"/>
					</g>
				</g>
			</g>
		</g>
		<rect x="77.004" y="311.586" fill="#126B9C" width="457.992" height="8.552"/>
		<g>
			<path fill="#a0da74" d="M137.463,370.923h-27.229v-4.275l0.916-0.104c2.568-0.314,3.119-1.044,3.119-4.381v-17.987
				c0-3.337-0.551-4.065-3.119-4.379l-0.916-0.104v-4.275h26.451l4.539,10.741l-3.119,1.772c-3.07-5.058-6.922-7.82-10.955-7.82
				c-4.86,0-4.86,1.199-4.86,4.848v4.432h1.331c3.346,0,4.584-0.157,4.675-5.685h3.576v16.215h-3.576
				c-0.595-5.264-2.062-5.735-4.722-5.735h-1.284v6.154c0,5.266,0,5.89,3.805,5.89c5.226,0,9.214-2.815,13.202-9.331l3.208,1.719
				L137.463,370.923z"/>
			<path fill="#a0da74" d="M165.318,370.923l-9.903-15.277h-2.383v6.517c0,3.337,0.551,4.067,3.117,4.381l0.918,0.104v4.275h-16.091
				v-4.275l0.916-0.104c2.568-0.314,3.119-1.044,3.119-4.381v-17.987c0-3.337-0.551-4.065-3.119-4.379l-0.916-0.104v-4.275h17.832
				c7.656,0,13.615,1.876,13.615,9.488c0,4.797-2.887,8.395-7.656,9.645l5.776,8.499c2.154,2.711,2.98,3.598,5.409,3.598v4.275
				H165.318z M156.561,340.265c-3.529,0-3.529,1.148-3.529,2.295v8.134h3.255c5.823,0,6.784-3.182,6.784-5.266
				C163.071,340.683,159.221,340.265,156.561,340.265z"/>
			<path fill="#a0da74" d="M197.369,370.923h-18.336v-4.275l0.916-0.104c2.568-0.314,3.119-1.044,3.119-4.381v-17.987
				c0-3.337-0.551-4.065-3.119-4.379l-0.916-0.104v-4.275h17.42c6.554,0,12.056,1.719,12.056,8.915c0,3.18-1.65,5.997-4.401,7.508
				c3.712,1.356,5.776,4.432,5.776,8.654C209.885,370.35,201.953,370.923,197.369,370.923z M194.848,340.369
				c-3.759,0-3.759,1.044-3.759,2.713v6.464h3.667c3.759,0,5.959-1.615,5.959-4.43C200.716,342.142,198.562,340.369,194.848,340.369
				z M194.895,354.343h-3.805v9.28c0,1.564,0.321,2.66,3.988,2.66c4.035,0,6.463-2.346,6.463-6.309
				C201.54,356.011,199.57,354.343,194.895,354.343z"/>
			<path fill="#a0da74" d="M229.107,371.6c-8.893,0-16.364-6.882-16.364-18.091c0-10.845,7.15-18.769,16.961-18.769
				c9.443,0,16.687,7.09,16.687,18.142C246.391,363.519,238.919,371.6,229.107,371.6z M229.749,340.057
				c-4.858,0-8.204,5.37-8.204,13.243c0,5.109,1.603,12.982,7.93,12.982c4.86,0,8.115-5.37,8.115-13.294
				C237.59,344.854,234.656,340.057,229.749,340.057z"/>
			<path fill="#a0da74" d="M275.369,370.923l-9.903-15.277h-2.383v6.517c0,3.337,0.551,4.067,3.117,4.381l0.918,0.104v4.275h-16.091
				v-4.275l0.916-0.104c2.568-0.314,3.119-1.044,3.119-4.381v-17.987c0-3.337-0.551-4.065-3.119-4.379l-0.916-0.104v-4.275h17.832
				c7.656,0,13.615,1.876,13.615,9.488c0,4.797-2.887,8.395-7.656,9.645l5.776,8.499c2.154,2.711,2.98,3.598,5.409,3.598v4.275
				H275.369z M266.612,340.265c-3.529,0-3.529,1.148-3.529,2.295v8.134h3.255c5.823,0,6.784-3.182,6.784-5.266
				C273.122,340.683,269.272,340.265,266.612,340.265z"/>
			<path fill="#a0da74" d="M291.365,370.923v-4.275l1.101-0.104c3.025-0.314,3.117-1.826,3.117-4.381v-17.987
				c0-2.815-0.183-4.118-3.117-4.379l-1.101-0.104v-4.275h16.457v4.275l-1.099,0.104c-3.025,0.314-3.119,1.826-3.119,4.379v17.987
				c0,2.817,0.185,4.12,3.119,4.381l1.099,0.104v4.275H291.365z"/>
			<path fill="#a0da74" d="M328.534,371.6c-3.117,0-6.28-1.042-8.204-2.658l-0.642,2.554h-2.706l-3.803-13.294l3.438-1.303
				c2.98,6.205,6.831,9.645,12.01,9.645c3.393,0,5.776-1.93,5.776-4.64c0-1.93-0.963-2.713-4.401-3.702l-4.537-1.303
				c-4.401-1.252-11.416-2.295-11.416-10.794c0-6.621,4.951-11.365,11.829-11.365c2.658,0,5.5,0.938,7.335,2.346l0.549-1.668h2.751
				l3.025,10.584l-3.3,1.407c-3.301-5.16-5.593-7.612-10.039-7.612c-2.934,0-5.043,1.513-5.043,3.651
				c0,2.868,4.858,3.961,6.28,4.222l4.171,0.991c2.887,0.626,9.901,2.084,9.901,10.427C341.506,366.283,336.006,371.6,328.534,371.6
				z"/>
			<path fill="#a0da74" d="M372.505,347.722c-1.512-2.868-4.171-7.561-8.021-7.561c-0.825,0-0.916,0.104-0.916,1.825v20.176
				c0,2.348,0.045,4.224,3.117,4.381l1.375,0.104v4.275h-17.008v-4.275l1.375-0.104c3.117-0.157,3.117-2.138,3.117-4.381v-20.021
				c0-1.823-0.091-1.98-0.778-1.98c-3.072,0-6.28,3.129-7.885,7.561l-3.438-1.513l3.438-10.792h25.258l3.712,10.792L372.505,347.722
				z"/>
			<path fill="#a0da74" d="M405.018,370.923h-27.229v-4.275l0.918-0.104c2.566-0.314,3.117-1.044,3.117-4.381v-17.987
				c0-3.337-0.551-4.065-3.117-4.379l-0.918-0.104v-4.275h26.451l4.537,10.741l-3.117,1.772c-3.07-5.058-6.922-7.82-10.955-7.82
				c-4.86,0-4.86,1.199-4.86,4.848v4.432h1.329c3.348,0,4.585-0.157,4.677-5.685h3.576v16.215h-3.576
				c-0.595-5.264-2.062-5.735-4.722-5.735h-1.284v6.154c0,5.266,0,5.89,3.805,5.89c5.226,0,9.214-2.815,13.202-9.331l3.208,1.719
				L405.018,370.923z"/>
			<path fill="#a0da74" d="M437.433,370.923l-9.903-15.277h-2.383v6.517c0,3.337,0.551,4.067,3.117,4.381l0.918,0.104v4.275h-16.091
				v-4.275l0.918-0.104c2.566-0.314,3.117-1.044,3.117-4.381v-17.987c0-3.337-0.551-4.065-3.117-4.379l-0.918-0.104v-4.275h17.832
				c7.656,0,13.615,1.876,13.615,9.488c0,4.797-2.887,8.395-7.656,9.645l5.776,8.499c2.156,2.711,2.98,3.598,5.409,3.598v4.275
				H437.433z M428.678,340.265c-3.531,0-3.531,1.148-3.531,2.295v8.134h3.255c5.823,0,6.784-3.182,6.784-5.266
				C435.186,340.683,431.336,340.265,428.678,340.265z"/>
			<path fill="#a0da74" d="M451.148,370.923v-4.275l1.101-0.104c3.025-0.314,3.117-1.826,3.117-4.381v-17.987
				c0-2.815-0.183-4.118-3.117-4.379l-1.101-0.104v-4.275h16.457v4.275l-1.099,0.104c-3.025,0.314-3.119,1.826-3.119,4.379v17.987
				c0,2.817,0.185,4.12,3.119,4.381l1.099,0.104v4.275H451.148z"/>
			<path fill="#a0da74" d="M496.723,370.923h-27.229v-4.275l0.918-0.104c2.566-0.314,3.117-1.044,3.117-4.381v-17.987
				c0-3.337-0.551-4.065-3.117-4.379l-0.918-0.104v-4.275h26.451l4.537,10.741l-3.117,1.772c-3.07-5.058-6.922-7.82-10.955-7.82
				c-4.86,0-4.86,1.199-4.86,4.848v4.432h1.329c3.348,0,4.585-0.157,4.677-5.685h3.576v16.215h-3.576
				c-0.595-5.264-2.062-5.735-4.722-5.735h-1.284v6.154c0,5.266,0,5.89,3.805,5.89c5.226,0,9.214-2.815,13.202-9.331l3.208,1.719
				L496.723,370.923z"/>
		</g>
	</g>
</g>
</svg>
